<svg width="132" height="133" viewBox="0 0 132 133" fill="currentColor" xmlns="http://www.w3.org/2000/svg">
<path fill-rule="evenodd" clip-rule="evenodd" d="M76.0294 132.032C77.567 131.9 78.8688 130.839 79.2955 129.356L85.6467 113.233C87.1751 107.921 85.5691 109.668 83.3341 104.613C82.1762 101.993 81.0923 99.5201 80.1486 97.3675C78.4801 93.5602 77.2508 90.7553 76.8288 89.9178L52.3349 43.2579C50.6014 39.6358 48.924 36.4497 47.4477 33.6458C41.0502 21.4945 38.4311 16.5198 51.4051 14.338C55.5324 13.7203 57.4504 11.7259 57.2041 8.87327C56.9577 6.02062 54.4668 4.4069 50.5765 4.74286L4.67124 8.70715C-1.81256 9.26708 -1.56983 18.129 5.54465 18.821C11.0806 19.3879 18.7102 26.0444 27.9558 45.3632L71.0479 128.805C72.2867 131.049 73.9547 132.212 76.0294 132.032Z" fill="black"/>
<path d="M123.707 49.3595C125.971 46.7355 132.168 37.1661 131.997 29.5541C131.997 12.1943 117.343 -0.380228 100.053 0.00878294C82.7625 0.397794 69.0309 15.3314 69.3826 30.9628C69.7343 46.5942 84.036 58.9506 101.326 58.5616C101.934 58.5479 102.537 58.5187 103.135 58.4744C103.006 59.0603 102.86 59.6679 102.697 60.2972C101.714 64.0862 98.0612 72.7972 97.7534 73.6498C96.0913 77.258 100.948 80.2692 103.441 77.1759L123.707 49.3595Z" fill="black"/>
</svg>
